HIERARCHY
ROOT Hips
{
	OFFSET	0.00	0.00	0.00
	CHANNELS 6 Xposition Yposition Zposition Zrotation Xrotation Yrotation
	JOINT Spine
	{
		OFFSET	 0.00	0.01	 0.00
		CHANNELS 3 Zrotation Xrotation Yrotation
		JOINT Spine1
		{
			OFFSET	 0.00	 2.45913012437421	 0.00
			CHANNELS 3 Zrotation Xrotation Yrotation
            JOINT Neck
            {
                OFFSET	 0.00	 2.48462964506057	 0.00
                CHANNELS 3 Zrotation Xrotation Yrotation
                JOINT Head
                {
                    OFFSET	 0.00	 0.927524780924562	 0.00
                    CHANNELS 3 Zrotation Xrotation Yrotation
                    End Site 
                    {
                        OFFSET	 0.00	 1.14999962169752	 0.00
                    }
                }
            }
			JOINT LeftShoulder
			{
				OFFSET	 0.00	 2.48462964506057	 0.00
				CHANNELS 3 Zrotation Xrotation Yrotation
				JOINT LeftUpArm
				{
					OFFSET	 0.00	 1.24881979654096	 0.00
					CHANNELS 3 Zrotation Xrotation Yrotation
					JOINT LeftForeArm
					{
						OFFSET	 0.00	2.59758046908119	 0.00
						CHANNELS 3 Zrotation Xrotation Yrotation
						JOINT LeftHand
						{
							OFFSET	 0.00	2.45542024364365	 0.00
							CHANNELS 3 Zrotation Xrotation Yrotation
							JOINT LeftHandThumb 
							{
								OFFSET	 0.00	0.00	 0.00
								CHANNELS 3 Zrotation Xrotation Yrotation
								End Site
								{
									OFFSET	 0.00	0.00	1.00000003353624
								}
							}
							JOINT L_Wrist_End 
							{
								OFFSET	 0.00	0.99999967115358	 0.00
								CHANNELS 3 Zrotation Xrotation Yrotation
								End Site 
								{
									OFFSET	 0.00	 0.00	 0.00
								}
							}
						}
					}
				}
			}
			JOINT RightShoulder
			{
				OFFSET	 0.00	 2.48462964506057	 0.00
				CHANNELS 3 Zrotation Xrotation Yrotation
				JOINT RightUpArm
				{
					OFFSET	 0.00	 1.24881979654096	 0.00
					CHANNELS 3 Zrotation Xrotation Yrotation
					JOINT RightForeArm
					{
						OFFSET	 0.00	2.59758046908119	 0.00
						CHANNELS 3 Zrotation Xrotation Yrotation
						JOINT RightHand
						{
							OFFSET	 0.00	2.45542024364365	 0.00
							CHANNELS 3 Zrotation Xrotation Yrotation
							JOINT RightHandThumb 
							{
								OFFSET	 0.00	0.00	 0.00
								CHANNELS 3 Zrotation Xrotation Yrotation
								End Site
								{
									OFFSET	 0.00	0.00	1.00000003353624
								}
							}
							JOINT R_Wrist_End 
							{
								OFFSET	 0.00	0.99999967115358	 0.00
								CHANNELS 3 Zrotation Xrotation Yrotation
								End Site 
								{
									OFFSET	 0.00	 0.00	 0.00
								}
							}
						}
					}
				}
			}
		}
	}
	JOINT LeftUpLeg
	{
		OFFSET	 1.2719394002717	 0.00	 0.00
		CHANNELS 3 Zrotation Xrotation Yrotation
		JOINT LeftLowLeg
		{
			OFFSET	 0.00	-4.3429100912261	 0.00
			CHANNELS 3 Zrotation Xrotation Yrotation
			JOINT LeftFoot
			{
				OFFSET	 0.00	-4.48767017425826	 0.00
				CHANNELS 3 Zrotation Xrotation Yrotation
				JOINT LeftToeBase
                {
                    OFFSET	 0.00	0.00	 1.51507020887566
                    CHANNELS 3 Zrotation Xrotation Yrotation
                    End Site 
                    {
                        OFFSET	 0.00	0.00	 0.75000010571191
                    }
                }
			}
		}
	}
	JOINT RightUpLeg
	{
		OFFSET	 -1.2719393604653	 0.00	 0.00
		CHANNELS 3 Zrotation Xrotation Yrotation
		JOINT RightLowLeg
		{
			OFFSET	 0.00	-4.3429100912261	 0.00
			CHANNELS 3 Zrotation Xrotation Yrotation
			JOINT RightFoot
			{
				OFFSET	 0.00	-4.48767017425826	 0.00
				CHANNELS 3 Zrotation Xrotation Yrotation
				JOINT RightToeBase
                {
                    OFFSET	 0.00	0.00	 1.51507020887566
                    CHANNELS 3 Zrotation Xrotation Yrotation
                    End Site 
                    {
                        OFFSET	 0.00	0.00	 0.749999965609858
                    }
                }   
			}
		}
	}
}
MOTION 
Frames:	8 
Frame Time: 0.02 
 1.9711199951171876 5.904400024414063 9.812119750976562 -145.987 84.2098 -210.221 2.51832 -5.19785 -3.67569 -0.788211 4.88018 -3.86617 -0.630002 31.5955 4.63634 13.9386 -49.7813 11.3723 -89.501755 -16.519 -1.67967 -13.0747 3.57442 -33.3135 0.0 21.2862 0.0 29.3672 -8.38216 21.8434 0.0 0.0 0.0 0.0 0.0 0.0 97.63493 -10.1249 1.20139 11.1356 -1.88784 37.0398 0.0 18.2654 0.0 -15.4228 -1.77076 -25.6238 0.0 0.0 0.0 0.0 0.0 0.0 4.25254 -3.89294 -1.97839 0.0 7.48707 0.0 -3.30632 6.59715 0.0510151 0.0 -28.4084 0.0 4.32943 -0.433066 1.15113 0.0 6.09029 0.0 7.48225 9.1126995 -8.42071 0.0 -28.237701 0.0 
  1.9708299255371093 5.900910034179687 9.811810302734376 -145.987 84.214 -210.221 2.51857 -5.20848 -3.67337 -0.793179 4.85077 -3.86409 -0.650629 31.642 4.64171 13.8845 -49.7226 11.3112 -89.46653 -16.5157 -1.70168 -13.1615 3.56827 -33.3745 0.0 21.2881 0.0 29.4055 -8.34865 21.9358 0.0 0.0 0.0 0.0 0.0 0.0 97.54196 -10.2977 1.20907 11.2396 -1.70885 36.9912 0.0 18.2795 0.0 -15.4324 -1.78399 -25.6457 0.0 0.0 0.0 0.0 0.0 0.0 4.25046 -3.86504 -2.01405 0.0 7.49343 0.0 -3.29847 6.5871897 0.0977455 0.0 -28.6619 0.0 4.3308 -0.408936 1.15493 0.0 6.09184 0.0 7.4693 9.097839 -8.42559 0.0 -28.2457 0.0 
  1.9703500366210938 5.896300048828125 9.811610107421876 -145.974 84.227 -210.251 2.52008 -5.20459 -3.67077 -0.813401 4.79604 -3.86232 -0.699695 31.7655 4.699 13.8568 -49.7162 11.3123 -89.47036 -16.5307 -1.69947 -13.1695 3.56118 -33.3767 0.0 21.2994 0.0 29.3862 -8.36921 21.9073 0.0 0.0 0.0 0.0 0.0 0.0 97.53822 -10.3041 1.17711 11.2465 -1.72012 37.0741 0.0 18.3381 0.0 -15.458 -1.8689 -25.6742 0.0 0.0 0.0 0.0 0.0 0.0 4.2518 -3.81682 -1.95398 0.0 7.48452 0.0 -3.29798 6.5770903 0.0607342 0.0 -28.6751 0.0 4.3319 -0.37738 1.20559 0.0 6.10848 0.0 7.48782 9.06549 -8.45387 0.0 -28.2337 0.0 
  1.9701100158691407 5.890819702148438 9.81135986328125 -145.942 84.247 -210.313 2.51722 -5.23316 -3.66358 -0.834264 4.79882 -3.85475 -0.74964 31.8745 4.76495 13.8398 -49.7073 11.3223 -89.4833 -16.5219 -1.69892 -13.1511 3.5207 -33.3019 0.0 21.3072 0.0 29.4224 -8.37049 21.9133 0.0 0.0 0.0 0.0 0.0 0.0 97.54286 -10.3213 1.19514 11.2374 -1.70932 37.104 0.0 18.3504 0.0 -15.4549 -1.83441 -25.726 0.0 0.0 0.0 0.0 0.0 0.0 4.25071 -3.7376 -1.92374 0.0 7.44566 0.0 -3.29939 6.5669804 0.0585544 0.0 -28.6717 0.0 4.32892 -0.32217 1.23339 0.0 6.09658 0.0 7.48011 9.05717 -8.4578 0.0 -28.2668 0.0 
  1.9699000549316406 5.885869750976562 9.810980224609375 -145.994 84.2509 -210.282 2.55564 -5.24953 -3.63735 -0.933264 4.74832 -3.83523 -0.743021 31.9591 4.7636 13.8637 -49.6855 11.317 -89.442276 -16.4979 -1.67303 -13.1521 3.50242 -33.3218 0.0 21.312 0.0 29.4517 -8.3648 21.9447 0.0 0.0 0.0 0.0 0.0 0.0 97.5834 -10.362 1.16308 11.2222 -1.70322 37.0977 0.0 18.368 0.0 -15.4835 -1.88262 -25.7244 0.0 0.0 0.0 0.0 0.0 0.0 4.24788 -3.68828 -1.93074 0.0 7.42185 0.0 -3.30052 6.5453596 0.0840422 0.0 -28.665901 0.0 4.32555 -0.287009 1.2516 0.0 6.08525 0.0 7.47547 9.03895 -8.45679 0.0 -28.2575 0.0 
  1.969810028076172 5.880430297851563 9.810609741210937 -145.906 84.2692 -210.397 2.55303 -5.27423 -3.63817 -0.942129 4.75376 -3.83563 -0.786166 32.0137 4.79665 13.8415 -49.6901 11.2793 -89.44431 -16.5261 -1.68013 -13.1788 3.47941 -33.3296 0.0 21.3048 0.0 29.4536 -8.27927 21.8979 0.0 0.0 0.0 0.0 0.0 0.0 97.57625 -10.3551 1.14665 11.206 -1.69715 37.0354 0.0 18.3655 0.0 -15.5037 -1.89384 -25.7522 0.0 0.0 0.0 0.0 0.0 0.0 4.24994 -3.61784 -1.92089 0.0 7.40537 0.0 -3.29847 6.5188303 0.100275 0.0 -28.6417 0.0 4.3276 -0.227063 1.26803 0.0 6.07075 0.0 7.48085 9.0221405 -8.45229 0.0 -28.2514 0.0 
  1.9699600219726563 5.875360107421875 9.810280151367188 -145.908 84.2727 -210.42 2.54587 -5.31672 -3.62953 -0.948277 4.77131 -3.8256 -0.790256 32.0733 4.79554 13.8186 -49.7226 11.3053 -89.47203 -16.5452 -1.71521 -13.154 3.49675 -33.3142 0.0 21.2667 0.0 29.5102 -8.35062 21.9799 0.0 0.0 0.0 0.0 0.0 0.0 97.57691 -10.3593 1.14186 11.1903 -1.70578 36.9909 0.0 18.366 0.0 -15.4836 -1.93128 -25.7156 0.0 0.0 0.0 0.0 0.0 0.0 4.24893 -3.57691 -1.90722 0.0 7.40565 0.0 -3.30854 6.48435 0.111262 0.0 -28.610401 0.0 4.32824 -0.183055 1.23426 0.0 6.04825 0.0 7.43809 9.01626 -8.42076 0.0 -28.232 0.0 
  1.9702000427246094 5.870330200195313 9.810029907226562 -145.861 84.2845 -210.502 2.50819 -5.36936 -3.64495 -0.898802 4.82858 -3.83445 -0.83659 32.0617 4.82721 13.778 -49.7026 11.2413 -89.53594 -16.5615 -1.73299 -13.1136 3.43482 -33.2321 0.0 21.2728 0.0 29.5428 -8.42686 21.9736 0.0 0.0 0.0 0.0 0.0 0.0 97.5581 -10.2958 1.12723 11.1889 -1.72944 37.0616 0.0 18.3895 0.0 -15.4675 -1.98347 -25.7647 0.0 0.0 0.0 0.0 0.0 0.0 4.24818 -3.51734 -1.90168 0.0 7.38992 0.0 -3.31418 6.4676704 0.138114 0.0 -28.6187 0.0 4.32628 -0.141835 1.237 0.0 6.04429 0.0 7.43101 9.01048 -8.39722 0.0 -28.2417 0.0 
